<?xml version="1.0" encoding="UTF-8"?>
<!-- Generator: visioncortex VTracer 0.6.5 -->
<svg version="1.1" xmlns="http://www.w3.org/2000/svg" width="1024" height="1024">
<path d="M0,0 L33,1 L68,5 L92,10 L117,17 L144,27 L177,43 L191,51 L205,60 L222,72 L238,85 L252,97 L275,120 L284,131 L296,146 L311,168 L326,193 L341,221 L349,238 L359,263 L364,279 L371,306 L376,336 L378,354 L379,376 L379,393 L376,427 L371,456 L362,490 L355,510 L349,525 L356,528 L360,533 L361,536 L361,571 L373,573 L381,577 L384,582 L385,586 L385,616 L387,621 L387,637 L386,639 L385,718 L382,726 L373,732 L358,740 L338,751 L335,752 L326,752 L289,740 L269,733 L228,719 L192,707 L182,704 L171,710 L148,720 L134,726 L109,734 L76,742 L48,746 L25,748 L-9,748 L-40,745 L-66,741 L-97,733 L-124,724 L-145,715 L-164,706 L-180,697 L-199,685 L-212,676 L-224,667 L-239,654 L-249,645 L-254,641 L-254,639 L-258,637 L-268,627 L-275,619 L-286,606 L-295,594 L-306,578 L-318,558 L-327,542 L-339,515 L-351,479 L-356,460 L-362,426 L-364,410 L-365,378 L-364,354 L-361,330 L-357,306 L-349,275 L-338,245 L-330,227 L-318,205 L-304,180 L-293,163 L-281,146 L-270,132 L-258,118 L-244,103 L-232,92 L-218,80 L-205,70 L-181,54 L-168,46 L-139,31 L-111,20 L-92,14 L-64,7 L-38,3 L-20,1 Z M3,14 L-33,16 L-63,21 L-91,28 L-114,36 L-133,44 L-149,52 L-163,59 L-176,67 L-188,75 L-207,89 L-221,101 L-236,115 L-247,126 L-247,128 L-249,128 L-258,139 L-267,150 L-277,164 L-289,182 L-300,201 L-310,219 L-321,241 L-332,269 L-337,285 L-336,287 L-323,274 L-310,265 L-298,260 L-285,257 L-266,257 L-250,262 L-244,266 L-235,274 L-231,282 L-229,293 L-231,301 L-233,306 L-238,307 L-245,298 L-248,296 L-255,296 L-261,299 L-268,307 L-269,311 L-269,324 L-262,338 L-253,346 L-243,351 L-230,354 L-219,354 L-220,344 L-220,325 L-217,312 L-211,302 L-203,295 L-201,291 L-200,279 L-206,275 L-209,270 L-209,262 L-204,239 L-200,234 L-196,232 L-188,211 L-180,195 L-172,183 L-162,170 L-148,155 L-133,143 L-119,134 L-98,123 L-79,116 L-60,111 L-41,108 L-29,107 L-6,107 L13,109 L38,114 L57,121 L76,130 L87,137 L100,147 L112,158 L120,166 L133,184 L141,198 L146,208 L148,212 L155,214 L159,223 L164,240 L164,248 L159,256 L163,268 L172,274 L178,278 L184,286 L188,295 L191,311 L195,331 L196,332 L205,331 L218,325 L227,318 L233,310 L236,303 L237,296 L237,288 L234,278 L229,272 L223,269 L211,269 L205,272 L201,277 L195,278 L192,268 L192,261 L195,249 L200,240 L208,232 L218,226 L230,222 L236,221 L255,221 L271,225 L288,234 L299,243 L309,254 L316,264 L328,283 L334,291 L341,298 L351,305 L356,307 L355,300 L346,269 L339,250 L327,224 L315,201 L303,181 L289,160 L276,143 L267,133 L260,125 L249,114 L244,109 L229,95 L219,87 L200,73 L182,62 L166,53 L150,45 L134,38 L115,31 L91,24 L62,18 L47,16 L11,14 Z M-34,114 L-58,118 L-74,121 L-93,128 L-100,131 L-100,133 L-110,136 L-127,147 L-141,159 L-150,167 L-159,178 L-166,186 L-174,199 L-180,209 L-187,226 L-188,232 L-170,232 L-163,217 L-151,195 L-142,183 L-131,170 L-120,159 L-103,146 L-87,136 L-66,126 L-51,121 L-40,118 L-16,115 L-16,114 Z M-19,119 L-37,122 L-62,129 L-78,136 L-95,145 L-108,155 L-121,166 L-131,176 L-141,189 L-151,203 L-161,222 L-164,229 L-165,234 L-161,237 L-158,236 L-153,224 L-141,202 L-127,185 L-117,174 L-109,167 L-92,154 L-71,143 L-53,136 L-30,131 L-16,129 L5,129 L32,133 L49,138 L69,147 L81,154 L92,162 L105,173 L112,181 L118,188 L129,205 L136,218 L141,217 L140,211 L132,195 L124,183 L113,169 L97,153 L83,143 L67,134 L49,127 L27,121 L14,119 Z M-20,135 L-21,138 L-10,138 L11,141 L33,147 L41,151 L57,159 L68,166 L80,175 L94,188 L105,203 L117,221 L118,222 L131,221 L130,216 L120,200 L112,189 L103,179 L93,169 L80,159 L58,147 L47,142 L14,135 Z M-36,144 L-50,146 L-73,153 L-92,163 L-105,173 L-115,182 L-126,194 L-138,211 L-147,226 L-153,240 L-153,249 L-160,271 L-163,278 L-175,282 L-175,293 L-161,287 L-160,278 L-156,273 L-138,263 L-122,256 L-115,253 L-115,241 L-113,214 L-108,199 L-101,188 L-91,179 L-78,171 L-58,163 L-41,159 L-35,158 L-32,152 L-32,150 L-26,148 L-14,148 L-9,151 L-5,155 L18,157 L36,161 L52,167 L63,174 L73,183 L80,197 L84,212 L88,236 L90,257 L99,265 L104,267 L118,266 L126,268 L137,269 L136,262 L124,259 L119,251 L111,232 L110,223 L100,207 L89,194 L82,186 L70,175 L55,165 L40,157 L28,152 L1,145 L-6,144 Z M-17,162 L-35,164 L-45,168 L-56,175 L-65,185 L-70,197 L-73,215 L-73,246 L-72,255 L-43,250 L-22,247 L-21,224 L-19,215 L-12,204 L-3,198 L5,195 L18,193 L17,186 L12,174 L7,167 L-2,162 Z M4,162 L9,166 L15,174 L19,185 L20,193 L32,195 L44,201 L48,203 L50,207 L55,215 L58,227 L59,232 L60,247 L61,248 L76,250 L82,250 L82,236 L78,213 L73,196 L66,185 L57,177 L40,169 L21,164 Z M-56,168 L-71,175 L-84,182 L-96,192 L-102,201 L-106,212 L-108,230 L-108,261 L-107,263 L-99,262 L-75,256 L-76,243 L-76,212 L-73,196 L-69,186 L-63,178 L-60,175 L-60,173 L-56,171 L-53,168 Z M12,200 L0,202 L-3,205 L-8,208 L-13,214 L-15,223 L-14,224 L-1,223 L25,223 L33,224 L51,224 L50,217 L44,208 L39,204 L31,201 L15,200 Z M148,220 L140,225 L141,230 L147,246 L149,251 L154,249 L158,247 L157,236 L151,220 Z M-2,228 L-17,230 L-17,246 L36,245 L40,241 L40,233 L35,229 L32,228 Z M131,227 L119,228 L120,235 L126,251 L129,254 L144,254 L142,244 L135,227 Z M236,228 L225,231 L215,236 L207,243 L200,254 L199,257 L199,267 L207,262 L223,262 L235,268 L240,275 L243,283 L243,304 L242,310 L240,310 L236,318 L231,323 L224,329 L210,336 L196,339 L195,340 L194,363 L208,363 L217,367 L225,372 L232,377 L241,391 L247,406 L251,417 L264,435 L268,439 L273,429 L278,418 L278,416 L287,413 L299,410 L301,408 L304,395 L307,379 L311,364 L311,360 L313,360 L316,355 L335,344 L351,336 L360,330 L360,318 L358,315 L348,311 L339,305 L331,298 L321,285 L320,282 L317,282 L315,276 L308,265 L299,254 L294,248 L282,239 L267,231 L255,228 Z M-189,238 L-197,240 L-199,245 L-203,264 L-202,269 L-201,271 L-182,271 L-180,267 L-178,272 L-168,274 L-165,266 L-161,253 L-160,244 L-167,240 L-171,241 L-173,246 L-173,253 L-176,260 L-177,266 L-178,263 L-178,252 L-174,244 L-174,240 Z M-5,252 L-8,253 L-18,253 L-33,255 L-52,257 L-70,261 L-86,264 L-95,267 L-100,271 L-109,284 L-111,287 L-110,292 L-105,297 L-103,297 L-100,290 L-97,286 L-97,283 L-93,281 L-79,274 L-63,270 L-43,268 L27,266 L88,264 L84,259 L79,256 L53,253 L41,252 Z M151,258 L144,260 L146,273 L154,278 L160,280 L166,285 L172,296 L172,301 L167,302 L166,296 L162,290 L159,287 L157,287 L160,296 L164,307 L168,330 L169,339 L169,362 L167,378 L165,387 L171,385 L180,377 L184,371 L188,356 L188,340 L185,341 L185,334 L184,336 L178,335 L177,312 L181,312 L184,326 L185,326 L185,310 L184,306 L188,305 L186,304 L181,294 L180,288 L175,285 L170,280 L160,274 L156,266 L153,258 Z M-285,264 L-296,267 L-312,275 L-321,282 L-328,289 L-335,297 L-341,307 L-345,316 L-350,346 L-351,357 L-351,375 L-334,383 L-327,384 L-327,386 L-324,389 L-319,403 L-312,428 L-310,432 L-290,436 L-281,442 L-272,462 L-270,463 L-264,444 L-260,432 L-252,417 L-245,408 L-238,404 L-235,398 L-231,396 L-213,394 L-213,387 L-215,380 L-217,362 L-242,359 L-256,352 L-267,343 L-273,333 L-276,323 L-276,312 L-273,300 L-265,293 L-255,288 L-248,288 L-243,291 L-241,291 L-239,295 L-236,296 L-236,288 L-238,282 L-243,277 L-251,270 L-262,265 L-266,264 Z M57,269 L28,270 L25,271 L25,273 L19,274 L17,272 L-32,272 L-61,274 L-68,275 L-76,278 L-85,281 L-85,283 L-89,284 L-95,291 L-95,293 L-97,293 L-101,302 L-101,308 L-109,308 L-111,310 L-111,317 L-101,317 L-100,334 L-95,347 L-89,356 L-81,363 L-73,367 L-69,368 L-51,368 L-30,359 L-20,350 L-12,342 L-5,332 L1,319 L4,310 L5,301 L10,298 L21,298 L26,299 L29,311 L34,323 L41,334 L52,346 L64,355 L77,360 L84,361 L92,361 L105,358 L114,352 L121,343 L127,325 L128,308 L133,307 L134,306 L134,300 L127,298 L123,287 L114,277 L104,272 L90,269 Z M-148,276 Z M-150,277 Z M138,277 L140,281 L145,292 L149,303 L152,312 L156,337 L156,364 L153,384 L147,399 L148,402 L153,397 L157,391 L161,379 L163,366 L163,334 L161,319 L155,298 L151,290 L145,282 L140,277 Z M-193,278 L-194,282 L-195,295 L-199,301 L-207,308 L-210,313 L-209,316 L-206,312 L-202,311 L-192,311 L-186,315 L-178,325 L-177,331 L-180,332 L-186,322 L-191,319 L-195,318 L-198,321 L-192,324 L-189,329 L-189,332 L-192,334 L-196,328 L-202,327 L-206,331 L-209,341 L-210,345 L-211,366 L-213,368 L-210,369 L-208,384 L-203,399 L-199,405 L-194,406 L-189,402 L-188,397 L-195,402 L-199,400 L-202,388 L-200,388 L-198,393 L-195,396 L-191,395 L-188,390 L-184,382 L-184,363 L-179,362 L-180,385 L-182,399 L-186,407 L-190,410 L-188,414 L-177,420 L-173,420 L-173,412 L-169,411 L-159,411 L-157,412 L-155,421 L-151,419 L-148,414 L-145,407 L-142,395 L-141,388 L-141,352 L-144,334 L-150,316 L-157,305 L-165,299 L-170,301 L-164,309 L-161,316 L-166,317 L-168,313 L-177,303 L-181,296 L-182,278 Z M156,286 Z M-143,287 L-146,288 L-145,291 L-140,295 L-135,303 L-124,302 L-132,305 L-131,310 L-129,316 L-117,315 L-114,306 L-109,304 L-115,295 L-122,289 L-130,287 Z M-157,293 L-159,295 L-152,301 L-146,311 L-140,328 L-136,347 L-135,358 L-135,382 L-137,397 L-141,413 L-146,423 L-152,430 L-144,430 L-136,421 L-132,411 L-129,400 L-127,388 L-127,353 L-130,336 L-134,320 L-139,308 L-141,308 L-143,303 L-150,295 Z M14,303 L10,305 L3,326 L-5,341 L-14,351 L-23,360 L-37,368 L-52,373 L-70,373 L-82,368 L-85,366 L-89,367 L-89,382 L-83,386 L-81,386 L-80,390 L-74,399 L-72,408 L-61,414 L-54,422 L-49,432 L-35,440 L-27,447 L-25,451 L-24,457 L-10,457 L-5,458 L-5,460 L-1,462 L15,461 L38,456 L53,450 L66,443 L73,435 L71,431 L68,427 L82,417 L91,409 L95,402 L100,399 L104,383 L110,375 L115,371 L116,368 L116,357 L111,360 L107,363 L98,366 L81,366 L69,363 L54,354 L44,345 L36,336 L29,325 L24,312 L21,303 Z M-211,316 L-210,318 Z M-212,318 L-211,320 Z M183,331 Z M360,338 L333,353 L320,360 L316,366 L311,391 L309,397 L309,405 L307,405 L305,414 L284,421 L280,427 L273,444 L274,450 L279,458 L282,468 L283,478 L287,479 L296,477 L302,459 L308,445 L308,443 L313,441 L328,435 L330,433 L336,405 L339,399 L342,398 L342,404 L343,404 L343,399 L345,399 L346,409 L348,405 L351,392 L359,391 L359,393 L364,392 L365,389 L365,368 L363,338 Z M198,369 L192,371 L184,383 L182,386 L201,385 L214,384 L213,373 L208,369 L203,369 L200,369 Z M-351,383 L-349,420 L-343,455 L-342,459 L-337,458 L-330,451 L-323,443 L-319,444 L-328,457 L-330,461 L-315,470 L-311,472 L-311,474 L-319,477 L-319,479 L-310,482 L-307,488 L-305,498 L-303,495 L-301,491 L-299,490 L-298,495 L-292,507 L-278,506 L-272,490 L-273,474 L-277,466 L-285,448 L-289,443 L-314,437 L-316,436 L-322,417 L-327,397 L-330,392 L-346,384 Z M195,391 L170,396 L159,399 L154,405 L150,407 L150,408 L176,409 L176,412 L190,412 L201,418 L204,419 L205,422 L208,423 L214,421 L216,409 L221,398 L220,394 L209,391 Z M-83,395 Z M-82,396 Z M-81,397 Z M-80,398 L-79,400 Z M-224,400 L-230,402 L-231,407 L-231,414 L-229,420 L-209,417 L-198,416 L-203,411 L-208,403 L-210,400 Z M-82,409 Z M-81,411 Z M-239,412 L-244,417 L-250,426 L-257,441 L-262,457 L-264,465 L-264,472 L-260,467 L-252,451 L-246,441 L-237,432 L-236,428 L-236,415 L-237,412 Z M-80,412 Z M340,412 L337,425 L334,437 L332,445 L331,460 L333,460 L340,446 L344,436 L348,432 L347,427 L343,419 L341,412 Z M-79,413 Z M-78,414 Z M-71,414 L-68,417 L-64,418 L-68,414 Z M143,415 L144,418 L152,423 L158,431 L160,434 L169,436 L182,437 L185,434 L190,431 L193,428 L201,426 L198,423 L184,417 L175,415 Z M-77,416 Z M-76,417 Z M-75,418 Z M-64,418 Z M-63,419 Z M128,421 L121,426 L115,436 L113,442 L113,450 L114,451 L129,453 L142,458 L151,465 L154,471 L156,471 L158,464 L158,451 L157,442 L153,434 L149,429 L147,429 L145,425 L137,421 Z M-214,423 L-227,427 L-226,431 L-220,435 L-216,444 L-215,453 L-212,454 L-200,455 L-184,455 L-168,446 L-171,440 L-172,430 L-175,427 L-186,423 Z M-59,424 Z M-58,425 Z M92,432 Z M197,433 L194,437 L194,441 L191,442 L191,444 L187,446 L186,454 L186,475 L188,491 L207,496 L216,498 L220,498 L218,479 L211,450 L207,439 L203,433 Z M79,434 Z M91,434 Z M-60,435 Z M78,435 L78,438 Z M-232,436 L-238,441 L-245,452 L-257,474 L-261,482 L-270,502 L-273,510 L-273,517 L-271,522 L-268,524 L-261,525 L-256,523 L-250,519 L-245,514 L-239,505 L-238,500 L-236,500 L-232,490 L-227,478 L-223,465 L-222,450 L-226,439 L-229,436 Z M-59,436 Z M-58,437 Z M-57,438 Z M76,438 Z M-56,439 Z M75,439 L75,442 Z M-42,441 Z M73,442 L74,444 Z M-38,443 Z M-163,444 L-162,450 L-155,464 L-144,476 L-140,482 L-138,486 L-138,502 L-143,512 L-145,515 L-145,524 L-141,522 L-137,511 L-132,500 L-132,487 L-139,475 L-149,464 L-154,457 L-159,444 Z M-138,444 L-147,447 L-153,448 L-152,453 L-145,463 L-140,468 L-134,467 L-126,461 L-124,454 L-127,445 L-130,444 Z M-37,444 Z M72,444 L73,446 Z M-91,445 L-91,447 L-96,447 L-101,453 L-105,464 L-106,479 L-101,497 L-98,499 L-92,488 L-82,481 L-70,477 L-59,475 L-58,470 L-64,458 L-71,450 L-81,445 Z M-36,445 Z M-35,446 Z M71,446 Z M-53,454 Z M-52,455 Z M165,455 L163,470 L159,480 L159,486 L176,489 L180,489 L178,455 Z M55,457 Z M109,457 L98,460 L84,466 L76,473 L77,478 L82,486 L85,494 L85,506 L80,518 L73,529 L66,537 L51,547 L50,551 L57,553 L68,555 L86,555 L94,552 L95,542 L99,536 L113,527 L118,523 L120,524 L121,522 L122,491 L128,486 L142,482 L142,474 L140,467 L137,462 L122,457 Z M53,458 Z M-33,459 Z M52,459 Z M-32,460 Z M51,460 Z M-31,461 Z M-15,461 Z M49,461 L47,465 L51,461 Z M-206,462 L-207,463 L-209,482 L-214,497 L-214,499 L-201,499 L-199,496 L-197,487 L-195,481 L-193,471 L-193,467 L-191,466 L-191,462 Z M-29,462 Z M-7,464 Z M46,465 Z M-3,466 L-1,470 L1,471 L-1,467 Z M45,467 Z M18,471 L13,473 L16,474 L20,473 L33,472 L33,471 Z M-116,478 L-120,480 L-120,483 L-129,486 L-128,502 L-120,502 L-109,500 L-110,492 L-112,478 Z M-60,481 L-69,483 L-69,486 L-49,488 L-33,493 L-30,493 L-30,495 L-27,496 L-23,500 L-18,504 L-17,507 L-13,501 L-15,497 L-23,491 L-33,486 L-51,481 Z M69,481 L61,487 L53,495 L45,508 L42,517 L42,526 L48,522 L60,513 L77,508 L78,506 L78,493 L75,484 L73,481 Z M276,482 L266,487 L266,494 L268,500 L270,500 L271,509 L282,511 L282,499 L279,482 Z M312,482 L295,484 L286,485 L288,500 L289,513 L301,516 L330,522 L335,522 L345,498 L348,489 L347,484 L328,482 Z M136,488 L133,490 L140,491 L144,488 Z M45,485 L42,491 L42,493 L38,495 L33,497 L13,497 L8,494 L5,489 L-4,491 L-11,492 L-6,501 L3,507 L11,515 L18,526 L23,542 L23,551 L21,559 L17,560 L9,553 L-1,545 L-10,541 L-14,541 L-12,546 L-3,556 L5,563 L15,569 L17,571 L16,577 L15,580 L6,583 L-3,585 L-25,585 L-46,580 L-65,570 L-75,562 L-84,553 L-93,540 L-99,524 L-101,508 L-105,507 L-113,508 L-132,509 L-135,513 L-136,518 L-133,517 L-123,517 L-119,519 L-117,523 L-117,530 L-122,536 L-115,539 L-114,541 L-114,548 L-119,554 L-111,556 L-109,559 L-109,567 L-113,572 L-103,574 L-102,583 L-103,587 L-95,590 L-94,592 L-93,601 L-86,601 L-81,605 L-80,612 L-72,612 L-68,613 L-66,623 L-60,621 L-55,621 L-51,625 L-50,630 L-45,628 L-44,627 L-38,627 L-34,630 L-33,634 L-28,632 L-26,631 L-18,631 L-13,636 L-7,631 L-1,631 L5,636 L10,630 L17,629 L22,633 L24,633 L27,627 L30,625 L37,626 L42,632 L43,645 L47,644 L48,627 L53,620 L59,617 L74,616 L85,616 L94,618 L94,560 L82,561 L65,561 L54,559 L44,554 L42,551 L42,546 L49,540 L58,535 L67,527 L74,517 L71,516 L61,520 L49,529 L43,534 L38,534 L37,533 L37,516 L40,506 L47,492 L51,488 L51,486 Z M150,490 L144,492 L144,494 L147,495 L142,495 L143,500 L187,509 L203,513 L237,520 L260,525 L279,530 L297,533 L323,539 L330,540 L330,535 L313,531 L312,530 L320,531 L332,532 L335,529 L334,528 L320,525 L292,519 L254,511 L227,505 L197,499 L169,493 L155,490 Z M256,491 L253,493 L259,493 L259,491 Z M251,501 Z M-71,502 L-77,506 L-74,509 L-70,510 L-68,508 L-69,502 Z M250,503 Z M-220,506 L-220,552 L-226,552 L-234,545 L-239,538 L-243,527 L-245,527 L-246,525 L-253,529 L-254,530 L-256,555 L-259,581 L-262,586 L-267,585 L-272,581 L-278,564 L-281,548 L-281,533 L-279,525 L-280,512 L-303,518 L-319,523 L-318,528 L-306,552 L-294,571 L-284,585 L-274,598 L-265,609 L-254,621 L-238,637 L-230,644 L-218,654 L-215,656 L-211,655 L-201,645 L-196,642 L-189,641 L-165,640 L-129,640 L-122,643 L-115,650 L-106,662 L-98,673 L-95,676 L-78,679 L-61,684 L-54,687 L-47,697 L-37,714 L-31,726 L-27,732 L-14,734 L30,734 L48,732 L64,730 L85,726 L108,720 L124,714 L131,712 L143,707 L161,699 L163,696 L145,690 L134,686 L121,682 L103,676 L97,671 L95,666 L94,641 L75,635 L72,631 L65,628 L60,629 L58,632 L58,647 L54,653 L48,656 L35,656 L30,660 L21,660 L16,659 L11,662 L-1,662 L-5,661 L-11,663 L-19,663 L-25,660 L-30,661 L-38,661 L-44,658 L-46,656 L-56,656 L-64,652 L-67,649 L-79,647 L-84,642 L-86,638 L-94,636 L-101,631 L-103,624 L-113,620 L-117,613 L-118,608 L-126,603 L-129,596 L-130,588 L-135,583 L-136,580 L-137,569 L-141,564 L-142,561 L-142,550 L-147,543 L-148,527 L-149,524 L-149,516 L-147,512 L-147,508 L-157,508 L-159,536 L-163,552 L-167,564 L-170,568 L-170,576 L-166,596 L-163,610 L-161,616 L-161,624 L-164,627 L-170,626 L-179,620 L-187,609 L-193,600 L-198,586 L-200,570 L-202,570 L-204,566 L-205,559 L-205,534 L-202,506 Z M-232,507 L-237,513 L-239,518 L-238,525 L-230,541 L-226,541 L-227,531 L-227,509 Z M155,507 L149,520 L149,522 L160,525 L179,529 L191,532 L193,532 L194,523 L188,515 L179,512 L159,508 Z M-131,520 L-138,524 L-143,530 L-144,532 L-144,541 L-140,547 L-134,551 L-121,551 L-117,547 L-117,542 L-119,540 L-128,540 L-132,542 L-132,543 L-121,543 L-121,546 L-131,546 L-137,544 L-138,541 L-138,532 L-134,527 L-131,525 L-125,525 L-126,528 L-134,531 L-134,533 L-127,533 L-121,530 L-120,524 L-123,521 Z M223,523 L223,539 L229,541 L256,547 L267,550 L293,556 L312,560 L315,560 L323,546 L323,544 L300,539 L284,536 L281,539 L276,539 L272,533 L245,527 L227,523 Z M127,524 L127,532 L129,533 L128,524 Z M143,527 L141,535 L131,538 L125,537 L122,534 L120,534 L120,536 L111,537 L111,539 L139,546 L160,551 L188,558 L220,566 L267,578 L305,588 L321,592 L332,595 L340,594 L361,585 L371,581 L369,579 L360,578 L359,583 L350,587 L342,587 L338,586 L338,572 L324,568 L321,569 L320,572 L303,572 L304,570 L311,567 L309,565 L296,562 L284,559 L258,553 L252,553 L249,552 L242,551 L231,548 L222,546 L218,544 L214,543 L208,541 L177,534 L159,530 L148,527 Z M-274,529 L-275,531 L-275,549 L-272,564 L-269,572 L-267,577 L-265,576 L-263,568 L-262,551 L-261,546 L-261,531 L-267,531 L-269,529 Z M336,531 L334,533 L334,542 L341,545 L342,546 L343,584 L346,584 L347,541 L348,583 L353,582 L355,580 L355,537 L350,532 L346,531 Z M103,542 L101,544 L101,571 L120,576 L146,583 L161,587 L211,601 L228,605 L251,612 L258,613 L264,615 L294,623 L306,627 L325,632 L334,633 L334,601 L329,598 L319,595 L314,593 L298,590 L289,587 L255,579 L241,575 L225,571 L211,567 L196,564 L158,554 L133,548 L125,546 L121,546 L121,544 L110,542 Z M242,550 Z M245,551 Z M336,551 L329,562 L329,564 L338,565 L337,551 Z M100,574 L100,666 L104,670 L111,672 L111,667 L107,663 L112,665 L113,673 L130,679 L145,684 L155,688 L172,693 L175,693 L175,594 L154,588 L131,582 L117,578 L105,575 Z M374,584 L349,594 L339,599 L338,646 L338,686 L343,685 L341,689 L342,694 L346,697 L345,700 L345,698 L341,696 L338,696 L338,742 L343,740 L357,732 L358,719 L354,721 L347,725 L347,723 L358,714 L358,688 L356,688 L356,686 L360,686 L361,689 L369,688 L370,697 L373,699 L378,699 L378,682 L376,682 L376,685 L374,685 L374,680 L378,679 L378,672 L374,674 L374,676 L372,676 L372,666 L374,667 L375,670 L378,669 L378,660 L368,659 L371,656 L378,656 L378,648 L375,650 L360,650 L354,647 L350,642 L349,638 L349,627 L352,617 L357,611 L361,609 L369,609 L378,611 L378,585 Z M179,596 L179,618 L232,633 L236,633 L236,611 L219,606 L192,599 L182,596 Z M-102,608 Z M-103,609 Z M240,612 L239,651 L239,715 L254,721 L270,726 L310,739 L312,739 L313,726 L314,740 L324,744 L333,745 L334,743 L335,715 L335,645 L334,638 L275,621 L245,613 Z M362,613 L360,615 L365,616 L366,613 Z M359,615 Z M371,616 L366,621 L364,625 L364,640 L367,646 L373,646 L378,642 L381,635 L381,624 L378,617 Z M357,619 L356,622 L361,623 L362,620 Z M70,620 L70,622 L72,622 L72,620 Z M80,620 L80,622 L90,624 L90,622 Z M-88,621 Z M179,621 L179,658 L181,660 L206,667 L233,676 L236,676 L236,637 L215,631 L210,629 L202,628 L200,626 L190,624 Z M-89,622 Z M69,622 Z M91,623 L91,625 L93,625 L93,623 Z M-72,632 Z M-73,633 L-73,636 Z M-54,641 L-54,644 Z M-35,646 Z M-144,646 L-187,647 L-194,648 L-194,651 L-189,653 L-189,651 L-169,653 L-136,655 L-136,660 L-145,664 L-151,665 L-151,667 L-139,670 L-136,673 L-132,688 L-131,688 L-128,673 L-125,670 L-112,667 L-113,664 L-124,663 L-129,658 L-130,647 L-131,646 Z M25,647 Z M-15,648 L-14,651 Z M179,663 L179,695 L189,699 L215,708 L228,712 L233,714 L236,714 L236,680 L215,673 L189,665 L183,663 Z M-97,684 L-110,698 L-110,700 L-74,701 L-65,694 L-62,693 L-62,695 L-66,697 L-74,702 L-73,708 L-66,718 L-61,726 L-58,728 L-40,731 L-37,731 L-38,726 L-50,705 L-57,693 L-68,688 L-79,685 L-86,684 Z M372,701 L368,705 L368,712 L360,717 L360,730 L365,728 L375,723 L377,721 L378,715 L378,702 L377,701 Z " fill="#393134" transform="translate(505,141)"/>
<path d="M0,0 L18,0 L15,28 L15,53 L16,60 L18,64 L20,64 L22,80 L27,94 L29,97 L30,103 L24,111 L25,118 L31,122 L39,124 L52,124 L72,121 L92,115 L99,112 L100,102 L102,102 L105,111 L109,115 L117,118 L119,125 L128,131 L134,132 L138,139 L144,142 L153,143 L159,148 L164,150 L174,150 L179,154 L182,155 L190,155 L195,154 L201,157 L209,157 L217,155 L219,156 L231,156 L236,153 L241,154 L250,154 L255,150 L268,150 L274,147 L278,141 L278,126 L282,122 L286,123 L292,125 L297,130 L314,135 L315,160 L318,166 L325,171 L349,179 L363,183 L376,188 L383,190 L379,194 L359,203 L351,206 L330,213 L310,219 L287,223 L276,225 L263,227 L250,228 L206,228 L193,226 L184,211 L179,201 L168,183 L165,180 L150,175 L138,172 L125,170 L118,162 L110,151 L102,141 L95,135 L91,134 L55,134 L31,135 L22,137 L12,146 L8,150 L4,149 L-4,143 L-14,134 L-26,123 L-42,107 L-51,96 L-61,83 L-71,70 L-84,49 L-96,26 L-99,20 L-99,17 L-83,12 L-64,7 L-60,6 L-59,19 L-61,27 L-61,42 L-57,61 L-52,75 L-46,80 L-41,79 L-39,75 L-35,41 L-34,24 L-29,20 L-23,21 L-18,33 L-12,41 L-6,46 L0,46 Z M-80,19 L-81,25 L-79,27 L-74,26 L-73,24 L-76,19 Z M0,72 L-17,77 L-29,81 L-36,96 L-35,101 L-23,109 L-2,123 L2,123 L13,99 L18,88 L18,81 L10,77 L6,74 L4,74 L4,72 Z M264,156 L252,165 L251,170 L259,186 L267,201 L271,199 L286,189 L297,181 L298,180 L297,173 L292,163 L283,160 L267,156 Z M199,158 Z M181,169 L177,172 L178,177 L181,182 L186,177 L188,173 Z M211,174 L203,178 L197,186 L196,192 L200,196 L204,197 L226,197 L237,195 L239,193 L238,188 L234,181 L231,178 L224,174 Z M323,190 L318,196 L322,201 L325,201 L327,195 L324,190 Z M274,197 Z " fill="#E6C484" transform="translate(285,647)"/>
<path d="M0,0 L6,1 L4,5 L-1,13 L-6,23 L-8,31 L-8,48 L-7,49 L0,48 L10,39 L20,33 L29,31 L25,38 L16,48 L6,54 L-2,60 L-3,61 L-2,68 L6,73 L12,75 L20,76 L37,76 L49,75 L49,133 L40,131 L22,131 L11,133 L6,137 L3,142 L2,159 L-2,160 L-3,147 L-8,141 L-15,140 L-20,145 L-21,148 L-25,146 L-28,144 L-35,145 L-40,151 L-46,146 L-52,146 L-57,150 L-60,150 L-63,146 L-71,146 L-78,149 L-80,144 L-83,142 L-89,142 L-93,145 L-95,145 L-97,138 L-100,136 L-107,137 L-111,138 L-112,131 L-113,128 L-121,127 L-125,126 L-127,119 L-131,116 L-138,116 L-139,107 L-142,104 L-148,102 L-147,92 L-148,89 L-158,87 L-154,82 L-154,74 L-158,70 L-164,69 L-159,63 L-159,56 L-163,52 L-167,50 L-162,45 L-162,38 L-164,34 L-168,32 L-178,32 L-181,33 L-179,26 L-177,24 L-158,23 L-147,22 L-146,23 L-144,39 L-138,55 L-128,69 L-117,80 L-103,89 L-91,95 L-70,100 L-48,100 L-33,96 L-30,95 L-28,90 L-29,85 L-38,79 L-47,72 L-55,64 L-59,58 L-59,56 L-52,57 L-42,63 L-32,72 L-28,75 L-24,74 L-22,66 L-22,57 L-27,41 L-35,29 L-43,21 L-52,15 L-55,9 L-56,7 L-45,5 L-40,4 L-36,10 L-32,12 L-12,12 L-6,9 L-3,8 L-1,1 Z M-148,23 L-147,25 Z M0,89 L-3,97 L-6,102 L1,111 L5,109 L9,105 L15,102 L15,100 L7,97 L4,92 L2,89 Z M30,129 Z M-110,135 L-109,137 Z M-94,143 Z M-23,146 Z M0,149 L1,153 Z " fill="#DBB574" transform="translate(550,626)"/>
<path d="M0,0 L7,0 L11,11 L16,24 L26,38 L37,49 L50,57 L58,61 L67,63 L84,63 L95,59 L101,54 L102,54 L102,65 L100,69 L93,75 L90,80 L86,96 L81,99 L75,108 L64,117 L53,125 L42,118 L32,114 L24,112 L0,112 L-16,116 L-29,121 L-45,130 L-49,133 L-51,133 L-52,135 L-63,129 L-69,118 L-75,111 L-86,105 L-88,96 L-94,87 L-95,83 L-101,81 L-103,79 L-103,64 L-99,63 L-87,69 L-84,70 L-66,70 L-51,65 L-40,59 L-30,50 L-21,41 L-14,29 L-9,18 L-4,2 Z M-24,53 L-31,59 L-33,62 L-33,68 L-29,67 L-25,66 L-17,71 L-8,74 L12,74 L24,69 L31,63 L33,59 L33,55 L28,56 L20,63 L9,67 L-5,67 L-19,62 L-20,61 L-21,53 Z " fill="#E14E3C" transform="translate(519,444)"/>
<path d="M0,0 L15,0 L26,3 L32,7 L35,12 L42,15 L48,26 L50,30 L51,17 L55,12 L59,10 L67,10 L76,14 L86,23 L97,36 L105,46 L117,55 L128,60 L138,62 L139,63 L139,75 L130,81 L107,93 L95,100 L92,105 L90,105 L89,112 L84,132 L81,148 L79,154 L72,156 L59,161 L57,161 L54,170 L47,184 L42,179 L29,160 L20,136 L13,125 L8,120 L0,115 L-7,110 L-13,108 L-27,108 L-26,85 L-25,85 L-25,95 L-13,93 L-1,88 L10,80 L20,67 L24,57 L24,45 L23,45 L22,28 L18,19 L14,13 L2,7 L-13,6 L-9,3 Z M67,23 Z M99,46 L95,61 L91,65 L80,67 L83,69 L93,72 L96,75 L99,87 L100,87 L103,74 L107,71 L115,69 L115,67 L106,64 L103,59 L101,53 L100,46 Z M52,49 L50,50 L49,55 L40,57 L34,62 L30,70 L30,78 L32,83 L34,86 L25,86 L23,89 L23,98 L26,105 L30,109 L33,109 L33,118 L42,123 L37,126 L37,129 L46,127 L58,120 L67,111 L75,98 L79,85 L79,70 L76,58 L74,56 L72,69 L66,59 L65,57 L64,52 L58,49 Z M7,95 L6,99 L9,98 Z M65,128 L62,131 L63,136 L65,138 L70,132 Z M46,144 L42,149 L46,153 L48,153 L52,148 L48,144 Z " fill="#2A83A3" transform="translate(726,396)"/>
<path d="M0,0 L23,0 L23,1 L14,4 L4,10 L-1,16 L-3,26 L-3,37 L0,48 L2,57 L10,69 L17,75 L30,83 L39,86 L56,88 L57,86 L59,98 L60,101 L60,108 L42,110 L37,113 L34,119 L27,123 L19,134 L13,146 L9,158 L5,170 L3,177 L0,174 L-8,156 L-17,150 L-37,146 L-41,136 L-48,111 L-52,101 L-54,100 L-54,98 L-63,96 L-78,89 L-78,71 L-76,56 L-75,48 L-74,51 L-72,51 L-70,47 L-68,49 L-58,51 L-54,55 L-53,60 L-50,60 L-49,55 L-44,50 L-34,50 L-34,48 L-39,47 L-38,38 L-33,26 L-29,22 L-28,24 L-24,19 L-22,17 L-19,12 L-11,5 L-3,1 Z M-21,62 L-27,65 L-28,74 L-34,79 L-36,89 L-33,98 L-28,103 L-25,104 L-29,111 L-29,118 L-24,124 L-19,127 L-10,127 L-9,132 L-7,134 L3,132 L5,130 L6,122 L11,118 L11,115 L13,115 L13,100 L10,92 L6,89 L0,87 L5,82 L5,76 L-1,69 L-7,67 L-12,67 L-14,63 L-15,62 Z " fill="#2880A2" transform="translate(232,427)"/>
<path d="M0,0 L24,0 L38,4 L46,11 L49,17 L49,31 L44,46 L36,60 L27,70 L19,77 L7,84 L-5,87 L-17,87 L-27,84 L-36,77 L-43,67 L-47,56 L-48,49 L-48,30 L-43,16 L-40,14 L-35,14 L-35,9 L-23,4 L-10,1 Z " fill="#484C45" transform="translate(456,418)"/>
<path d="M0,0 L33,0 L46,3 L56,9 L60,14 L63,20 L64,25 L64,53 L63,53 L61,42 L59,55 L55,65 L46,75 L40,78 L36,79 L24,79 L13,76 L2,69 L-2,66 L-2,64 L-4,64 L-6,67 L-14,59 L-22,46 L-26,37 L-28,29 L-28,19 L-24,11 L-16,4 L-7,1 Z " fill="#454A45" transform="translate(564,415)"/>
<path d="M0,0 L11,0 L25,5 L34,12 L44,23 L51,37 L54,48 L54,63 L52,73 L49,82 L39,93 L32,98 L25,100 L15,100 L6,98 L-4,93 L-16,82 L-22,72 L-27,61 L-29,52 L-29,33 L-25,20 L-18,10 L-10,4 Z M10,11 L7,16 L4,24 L4,29 L7,33 L4,30 L2,30 L-8,50 L-12,58 L-16,66 L-17,70 L-7,66 L4,64 L5,52 L7,50 L12,51 L15,57 L16,67 L27,74 L37,83 L39,83 L37,78 L32,68 L26,63 L30,64 L27,53 L16,26 L12,12 Z " fill="#12283D" transform="translate(778,769)"/>
<path d="M0,0 L15,0 L25,6 L32,18 L35,27 L35,31 L19,34 L9,39 L4,44 L-2,53 L-4,62 L-5,85 L-32,89 L-55,93 L-56,84 L-56,53 L-53,35 L-48,23 L-38,12 L-27,5 L-18,2 Z " fill="#5A6C79" transform="translate(488,303)"/>
<path d="M0,0 L14,0 L24,4 L34,13 L43,27 L46,37 L47,41 L47,60 L43,71 L39,78 L30,85 L23,88 L12,88 L3,84 L-5,78 L-13,69 L-19,57 L-21,47 L-21,25 L-17,14 L-10,5 Z M10,8 L5,23 L6,27 L3,27 L-5,45 L-12,58 L-12,60 L-7,59 L5,56 L6,46 L8,43 L12,44 L15,48 L16,59 L25,65 L31,71 L33,71 L32,66 L28,59 L23,54 L27,56 L26,50 L16,23 L12,9 Z " fill="#11273B" transform="translate(629,730)"/>
<path d="M0,0 L24,0 L38,4 L50,11 L59,19 L57,24 L49,31 L30,40 L12,45 L1,47 L-15,48 L-19,46 L-19,44 L-24,43 L-38,43 L-40,35 L-45,29 L-51,25 L-51,22 L-31,10 L-20,5 L-6,1 Z " fill="#E5B17A" transform="translate(519,555)"/>
<path d="M0,0 L5,3 L7,7 L8,13 L8,21 L-8,26 L-12,30 L-13,61 L-15,63 L-17,63 L-27,70 L-35,75 L-50,82 L-67,86 L-81,88 L-83,86 L-71,78 L-65,73 L-55,59 L-50,48 L-49,45 L-49,33 L-54,21 L-55,19 L-52,13 L-43,7 L-32,3 L-25,1 Z " fill="#E75340" transform="translate(639,602)"/>
<path d="M0,0 L1,0 L3,30 L3,51 L2,54 L-3,55 L-3,53 L-7,52 L1,51 L1,49 L-8,48 L-13,42 L-15,32 L-19,45 L-27,49 L-32,50 L-20,54 L-18,58 L-19,66 L-20,66 L-20,60 L-23,61 L-26,67 L-32,95 L-36,98 L-49,103 L-54,105 L-57,114 L-65,135 L-66,139 L-78,141 L-79,140 L-81,125 L-86,115 L-88,111 L-81,101 L-72,88 L-65,86 L-46,86 L-39,88 L-40,85 L-50,79 L-51,75 L-44,50 L-41,43 L-37,32 L-34,33 L-28,46 L-28,38 L-29,25 L-7,10 L-1,7 Z " fill="#6C9496" transform="translate(867,479)"/>
<path d="M0,0 L33,0 L49,3 L68,8 L88,16 L104,25 L118,36 L134,52 L146,68 L155,83 L160,94 L160,98 L155,99 L147,84 L134,65 L125,56 L121,51 L110,42 L92,30 L73,21 L58,16 L46,13 L24,10 L3,10 L-22,14 L-37,18 L-58,27 L-76,37 L-90,48 L-105,62 L-114,73 L-123,85 L-136,109 L-140,118 L-145,116 L-146,111 L-143,107 L-139,97 L-132,84 L-122,70 L-114,60 L-105,50 L-98,43 L-84,32 L-71,23 L-48,12 L-37,8 L-13,2 Z " fill="#CEA153" transform="translate(486,260)"/>
<path d="M0,0 L10,0 L9,5 L8,8 L8,16 L9,19 L10,35 L15,42 L15,53 L18,59 L20,61 L21,72 L24,77 L27,80 L29,91 L33,97 L37,99 L37,110 L29,114 L5,121 L-6,122 L-5,118 L-4,116 L-4,108 L-8,94 L-12,72 L-13,68 L-13,60 L-9,54 L-3,34 L-1,18 Z M5,72 L5,76 L7,76 L6,72 Z " fill="#D7A968" transform="translate(348,649)"/>
<path d="M0,0 L5,2 L11,7 L17,17 L23,35 L26,53 L26,89 L24,102 L21,110 L17,119 L14,122 L12,122 L10,113 L8,112 L-2,112 L-6,113 L-6,121 L-12,120 L-21,115 L-23,111 L-18,106 L-15,100 L-13,86 L-12,62 L-13,61 L-16,44 L-17,39 L-22,38 L-22,36 L-24,36 L-24,34 L-22,33 L-23,28 L-24,26 L-21,23 L-19,23 L-13,33 L-10,32 L-9,28 L-8,32 L-6,32 L-7,34 L-10,35 L-9,42 L-4,58 L-1,69 L4,73 L6,74 L13,74 L18,71 L20,67 L20,55 L14,31 L8,19 L5,20 L3,22 L1,18 L6,17 L2,8 L-3,2 Z " fill="#D8B560" transform="translate(338,440)"/>
<path d="M0,0 L16,4 L49,13 L94,26 L95,38 L94,94 L91,102 L86,103 L83,94 L86,79 L86,64 L81,48 L75,38 L64,26 L56,21 L44,17 L33,17 L21,22 L14,28 L8,38 L5,49 L5,68 L8,80 L7,83 L3,80 L2,87 L0,88 Z " fill="#8F8B91" transform="translate(745,753)"/>
<path d="M0,0 L7,0 L11,2 L10,9 L13,12 L18,14 L25,14 L29,9 L36,10 L54,22 L66,34 L71,43 L74,45 L76,45 L80,52 L91,65 L102,73 L110,77 L115,79 L111,80 L102,78 L91,72 L80,63 L69,50 L61,40 L52,32 L44,29 L36,29 L30,33 L29,35 L28,50 L25,46 L20,36 L18,33 L11,30 L7,24 L-3,20 L-8,19 L-23,19 L-34,23 L-45,30 L-45,20 L-43,17 L-39,12 L-29,6 L-22,3 L-17,3 L-12,7 L-5,7 L0,3 Z M-44,21 Z M13,22 L11,24 L11,28 L16,31 L20,29 L20,23 Z M74,46 Z " fill="#AAE1EB" transform="translate(749,378)"/>
<path d="M0,0 L20,4 L33,9 L45,16 L51,21 L58,31 L62,40 L65,53 L69,80 L70,85 L52,83 L51,82 L50,67 L47,53 L42,43 L39,40 L39,38 L35,36 L23,30 L11,28 L9,17 L5,7 Z " fill="#596B78" transform="translate(514,306)"/>
<path d="M0,0 L3,1 L-4,9 L-9,19 L-12,31 L-13,38 L-13,69 L-12,82 L-40,89 L-42,88 L-41,54 L-39,40 L-35,28 L-26,16 L-10,5 Z " fill="#454A58" transform="translate(442,315)"/>
<path d="M0,0 L4,0 L4,2 L-19,13 L-35,24 L-51,37 L-63,49 L-74,63 L-83,77 L-94,98 L-98,107 L-116,107 L-114,98 L-106,80 L-102,74 L-98,70 L-97,66 L-95,64 L-91,57 L-81,48 L-73,41 L-64,31 L-57,25 L-52,20 L-38,11 L-34,12 L-35,15 L-30,13 L-22,9 L-5,3 Z M-54,22 Z " fill="#E8D77E" transform="translate(433,266)"/>
<path d="M0,0 L16,0 L35,2 L36,7 L29,26 L23,40 L13,39 L-14,33 L-23,31 L-25,11 L-26,3 L-5,1 Z M9,10 L8,15 L11,19 L15,18 L15,16 L17,15 L12,10 Z " fill="#EDD495" transform="translate(817,623)"/>
<path d="M0,0 L22,3 L20,13 L24,7 L29,1 L33,5 L42,25 L45,31 L46,47 L40,63 L26,64 L19,50 L19,47 L15,50 L16,43 L21,38 L26,36 L29,36 L29,34 L23,33 L18,30 L15,25 L13,19 L10,29 L7,29 L-11,19 L-11,15 L-2,3 Z " fill="#6A9394" transform="translate(187,584)"/>
<path d="M0,0 L47,0 L77,3 L86,5 L93,11 L93,12 L-38,16 L-58,18 L-77,23 L-81,22 L-73,16 L-60,12 L-37,8 L-35,4 L-13,1 L-2,1 Z " fill="#D65348" transform="translate(500,393)"/>
<path d="M0,0 L34,0 L67,7 L88,17 L104,27 L117,38 L130,51 L142,68 L151,83 L151,86 L138,87 L130,76 L123,65 L112,51 L98,38 L82,27 L70,20 L54,13 L47,10 L27,5 L10,3 L-1,3 Z " fill="#976B33" transform="translate(485,276)"/>
<path d="M0,0 L7,0 L20,4 L32,10 L34,13 L35,16 L35,24 L31,22 L30,19 L25,17 L21,15 L-2,15 L-11,19 L-19,25 L-23,28 L-25,22 L-25,20 L-27,20 L-28,26 L-29,28 L-36,29 L-44,29 L-54,34 L-64,44 L-72,58 L-75,65 L-76,65 L-76,56 L-74,44 L-66,28 L-61,21 L-57,19 L-50,16 L-47,13 L-41,10 L-36,6 L-26,2 L-17,1 L-14,6 L-6,8 L-2,7 Z M-34,10 L-38,12 L-39,19 L-38,20 L-31,20 L-25,16 L-24,12 L-25,10 Z " fill="#AEE0EA" transform="translate(234,413)"/>
<path d="M0,0 L6,0 L12,10 L17,28 L22,52 L23,65 L16,64 L3,61 L-9,58 L-11,42 L-11,21 L-10,13 L-6,11 L-5,8 L-3,8 L-2,2 Z M6,38 L4,42 L7,45 L11,42 L9,38 Z " fill="#D36253" transform="translate(702,574)"/>
<path d="M0,0 L10,0 L20,5 L27,13 L33,25 L32,30 L14,34 L6,38 L-1,43 L-7,54 L-11,50 L-15,34 L-14,19 L-9,6 L-5,2 L0,2 Z " fill="#CC5145" transform="translate(414,586)"/>
<path d="M0,0 L18,4 L38,8 L47,11 L55,13 L55,14 L44,16 L43,17 L43,27 L45,29 L52,30 L63,30 L67,28 L67,18 L65,15 L75,17 L82,19 L82,33 L86,34 L94,34 L103,30 L104,25 L113,26 L115,28 L105,32 L81,42 L73,41 L55,36 L34,31 L-5,21 L-16,18 L-17,14 L-8,16 L0,17 L11,13 L12,10 L11,5 L-1,2 Z " fill="#ACA58E" transform="translate(761,694)"/>
<path d="M0,0 L18,4 L66,17 L72,19 L72,110 L70,107 L70,104 L68,104 L68,102 L63,104 L59,103 L58,100 L61,89 L66,78 L67,74 L67,55 L64,44 L59,34 L51,24 L43,18 L35,15 L21,15 L11,20 L4,30 L1,39 L0,39 Z " fill="#97928B" transform="translate(608,716)"/>
<path d="M0,0 L10,1 L24,5 L47,10 L70,15 L69,17 L57,17 L49,19 L49,29 L61,31 L89,38 L96,40 L97,43 L88,42 L66,36 L45,31 L9,22 L-32,12 L-32,10 L-23,9 L-23,7 L-21,7 L-18,10 L-12,11 L-2,8 Z " fill="#979280" transform="translate(648,668)"/>
<path d="M0,0 L4,1 L4,27 L-5,25 L-13,25 L-19,29 L-23,35 L-25,43 L-25,54 L-22,61 L-19,64 L-14,66 L1,66 L4,64 L4,72 L-3,72 L-9,77 L-13,77 L-14,73 L-19,75 L-26,66 L-27,60 L-32,63 L-36,65 L-35,15 L-23,9 Z " fill="#685A69" transform="translate(879,725)"/>
<path d="M0,0 L9,0 L17,4 L19,8 L23,10 L28,19 L29,21 L30,30 L30,43 L28,50 L26,50 L22,43 L12,36 L1,32 L-14,30 L-15,29 L-15,21 L-11,11 L-5,3 Z " fill="#C9574A" transform="translate(633,562)"/>
<path d="M0,0 L11,0 L26,3 L39,8 L45,17 L53,32 L60,44 L60,47 L44,45 L37,43 L33,38 L27,28 L23,21 L23,18 L32,12 L35,11 L35,9 L29,12 L23,17 L-13,16 L-11,12 Z " fill="#6D9499" transform="translate(408,825)"/>
<path d="M0,0 L7,0 L7,7 L14,13 L16,17 L16,22 L14,23 L7,23 L4,16 L2,15 L1,27 L9,34 L10,36 L10,46 L6,52 L0,55 L-9,55 L-10,60 L-15,60 L-15,52 L-20,50 L-24,45 L-25,36 L-17,36 L-15,38 L-13,43 L-11,44 L-9,35 L-8,31 L-12,30 L-17,25 L-18,23 L-18,14 L-15,9 L-8,5 L0,5 Z " fill="#D8B65E" transform="translate(779,451)"/>
<path d="M0,0 L3,0 L5,4 L17,7 L20,10 L19,15 L13,17 L11,15 L7,14 L10,22 L10,25 L18,25 L26,29 L30,35 L30,42 L26,48 L20,53 L20,61 L14,62 L13,55 L4,55 L-2,52 L-5,48 L-3,44 L-1,42 L3,43 L10,46 L8,37 L7,35 L-4,33 L-9,29 L-10,26 L-10,15 L-2,8 L-2,2 Z " fill="#D7B964" transform="translate(212,494)"/>
<path d="M0,0 L9,2 L16,4 L39,10 L56,15 L56,37 L48,36 L21,28 L-1,22 L-1,1 Z M49,15 L52,17 L55,16 Z " fill="#8A8876" transform="translate(685,737)"/>
<path d="M0,0 L2,0 L2,7 L-14,17 L-26,25 L-25,47 L-28,44 L-33,33 L-35,32 L-38,43 L-43,57 L-48,75 L-47,79 L-37,85 L-37,88 L-44,87 L-63,87 L-70,89 L-80,104 L-85,111 L-87,110 L-86,104 L-78,85 L-74,82 L-55,76 L-53,67 L-51,68 L-51,59 L-47,43 L-44,28 L-40,22 L-21,12 Z M-45,38 Z " fill="#ADD3D6" transform="translate(865,479)"/>
<path d="M0,0 L2,1 L7,17 L19,48 L20,53 L16,52 L22,57 L29,70 L29,72 L25,70 L17,63 L6,56 L4,43 L1,39 L-4,40 L-5,41 L-6,53 L-20,56 L-27,59 L-26,55 L-22,47 L-14,31 L-8,19 L-6,19 L-3,22 L-6,18 L-5,11 L-1,1 Z " fill="#2D98C9" transform="translate(788,780)"/>
<path d="M0,0 L9,1 L13,4 L13,9 L18,16 L21,21 L21,29 L18,38 L17,41 L16,52 L11,61 L2,65 L-3,66 L-5,71 L-7,73 L-12,73 L-19,69 L-19,60 L-23,59 L-27,55 L-29,49 L-29,40 L-27,37 L-18,37 L-21,33 L-22,29 L-22,21 L-17,12 L-12,8 L-3,6 L-2,1 Z M1,6 L1,11 L-7,11 L-14,15 L-17,20 L-17,29 L-13,35 L-10,37 L-7,37 L-10,47 L-10,50 L-13,48 L-15,43 L-16,42 L-24,42 L-23,51 L-19,56 L-14,58 L-14,66 L-9,66 L-8,61 L1,61 L7,58 L11,52 L11,42 L4,34 L2,33 L3,21 L6,23 L8,29 L15,29 L17,28 L16,21 L11,15 L8,13 L8,6 Z " fill="#162524" transform="translate(778,445)"/>
<path d="M0,0 L9,0 L25,4 L39,7 L55,11 L67,14 L69,20 L67,24 L56,28 L48,27 L32,23 L4,16 L-8,13 L-9,11 L-9,3 Z M1,4 L1,5 L8,6 L10,4 Z M17,7 L17,9 L26,9 L22,7 Z M37,11 Z M49,14 Z M53,15 Z " fill="#4C4334" transform="translate(705,684)"/>
<path d="M0,0 L12,6 L15,9 L19,23 L25,39 L29,50 L30,52 L25,55 L12,69 L8,69 L3,42 L1,30 L0,14 Z " fill="#6B9496" transform="translate(155,531)"/>
<path d="M0,0 L7,2 L10,5 L11,15 L14,21 L2,28 L-2,30 L-18,30 L-30,29 L-33,28 L-34,19 L-37,11 L-37,7 L-33,5 L-32,4 L-23,3 L-24,8 L-21,11 L-20,14 L-18,15 L-18,11 L-14,8 L-12,8 L-12,5 L-15,6 L-14,3 L1,3 Z " fill="#B83B36" transform="translate(323,566)"/>
<path d="M0,0 L13,1 L31,5 L35,7 L37,9 L48,10 L55,11 L59,14 L71,19 L72,20 L72,50 L59,48 L44,44 L21,37 L15,35 L14,31 L24,31 L25,30 L25,12 L12,8 L-4,4 L0,3 Z M48,11 Z M52,12 Z M35,14 L34,15 L34,36 L56,42 L65,43 L67,41 L67,23 L62,20 L41,14 Z " fill="#E5CD84" transform="translate(767,724)"/>
<path d="M0,0 L11,2 L44,13 L49,15 L50,16 L50,34 L45,34 L37,31 L24,27 L2,20 L0,18 Z M3,4 L3,6 L7,5 Z M7,6 Z M10,7 Z M17,9 Z M19,10 Z M27,12 L28,14 L34,15 L32,13 Z M38,15 Z " fill="#705F3E" transform="translate(687,811)"/>
<path d="M0,0 L8,0 L8,1 L2,1 L2,6 L-9,8 L-17,12 L-23,19 L-25,24 L-25,34 L-21,47 L-13,61 L-4,71 L7,80 L20,86 L26,87 L39,87 L51,81 L56,76 L60,71 L64,62 L67,61 L68,63 L63,76 L55,85 L46,90 L35,92 L27,92 L17,90 L7,86 L-2,79 L-12,70 L-20,59 L-27,45 L-31,32 L-31,30 L-36,29 L-47,29 L-52,32 L-53,41 L-54,41 L-54,29 L-53,26 L-48,24 L-34,24 L-30,26 L-29,19 L-23,11 L-18,7 L-17,5 L-25,5 L-25,4 L-18,3 L-29,2 L-29,1 Z " fill="#CBBA83" transform="translate(562,410)"/>
<path d="M0,0 L7,1 L25,7 L46,13 L57,17 L57,51 L52,50 L41,46 L28,42 L7,35 L0,32 Z M3,7 L3,25 L8,28 L35,37 L47,40 L48,41 L53,41 L53,23 L51,21 L16,10 L6,7 Z " fill="#7F8484" transform="translate(684,804)"/>
<path d="M0,0 L34,0 L40,3 L42,5 L42,13 L38,17 L-15,18 L-15,2 Z " fill="#E0C472" transform="translate(503,369)"/>
<path d="M0,0 L8,1 L46,9 L50,11 L53,16 L58,16 L62,13 L69,14 L64,19 L59,22 L43,24 L43,26 L33,24 L1,17 L0,16 Z " fill="#CEA469" transform="translate(728,664)"/>
<path d="M0,0 L2,4 L4,9 L3,24 L1,29 L-1,37 L-6,49 L-10,59 L-12,59 L-14,66 L-21,76 L-26,80 L-31,83 L-37,84 L-43,82 L-45,80 L-34,71 L-27,62 L-22,55 L-18,45 L-15,42 L-11,41 L-12,36 L-5,17 L-1,6 Z " fill="#A52930" transform="translate(279,582)"/>
<path d="M0,0 L3,0 L8,12 L13,31 L15,45 L15,80 L12,96 L7,111 L0,120 L-2,122 L-10,122 L-4,115 L2,103 L6,85 L7,74 L7,50 L5,33 L0,14 L-3,5 Z M-2,6 Z " fill="#DBBA75" transform="translate(363,449)"/>
<path d="M0,0 L10,1 L32,6 L46,9 L62,12 L68,14 L94,19 L119,25 L140,29 L166,35 L188,40 L188,45 L162,40 L145,36 L129,33 L110,28 L84,23 L57,17 L36,12 L1,5 Z " fill="#5F6A73" transform="translate(647,636)"/>
<path d="M0,0 L8,0 L16,4 L21,0 L20,5 L15,10 L13,11 L12,9 L6,21 L3,33 L8,34 L8,36 L2,36 L0,34 L-5,31 L-9,25 L-13,30 L-16,33 L-19,34 L-20,36 L-26,36 L-28,34 L-31,37 L-30,32 L-23,19 L-14,9 L-7,3 Z " fill="#3A99B3" transform="translate(190,441)"/>
<path d="M0,0 L9,2 L9,28 L-2,37 L-2,39 L7,33 L9,33 L8,46 L-6,54 L-11,56 L-11,10 L-7,11 L-4,12 L-4,15 L-3,11 L-8,7 L-7,2 Z " fill="#7F5470" transform="translate(854,827)"/>
<path d="M0,0 L5,1 L13,16 L12,20 L12,18 L3,23 L-13,36 L-18,38 L-22,40 L-23,39 L-24,30 L-25,35 L-28,32 L-40,10 L-39,6 L-28,9 L-28,5 L-26,5 L-25,11 L-17,12 L7,16 L1,5 L-2,3 L0,1 Z " fill="#62A0B9" transform="translate(713,321)"/>
<path d="M0,0 L1,0 L4,12 L9,22 L18,32 L27,38 L33,40 L44,40 L54,35 L58,31 L60,31 L59,40 L60,42 L68,41 L68,43 L70,43 L72,49 L72,57 L62,55 L43,49 L34,45 L18,40 L10,37 L9,29 L4,27 L8,31 L8,36 L-1,33 L-3,30 L-3,10 L-1,10 L-1,1 Z " fill="#6F95A2" transform="translate(608,777)"/>
<path d="M0,0 L10,1 L22,4 L39,7 L40,8 L47,9 L77,15 L104,21 L147,30 L177,37 L184,38 L184,41 L177,42 L157,38 L107,27 L99,25 L76,21 L50,15 L32,11 L1,5 L-6,4 L-6,2 Z M33,7 Z " fill="#A3AFB2" transform="translate(655,631)"/>
<path d="M0,0 L2,1 L9,24 L17,45 L16,48 L13,46 L18,51 L23,59 L23,63 L19,61 L10,53 L6,51 L5,40 L1,35 L-3,36 L-4,38 L-5,48 L-17,51 L-22,52 L-20,46 L-12,30 L-6,18 L-3,19 L-5,15 L-2,5 Z " fill="#3199C7" transform="translate(639,738)"/>
<path d="M0,0 L9,2 L27,6 L34,9 L41,11 L41,31 L35,30 L24,26 L6,21 L0,19 L-1,2 Z " fill="#4E5C67" transform="translate(692,774)"/>
<path d="M0,0 L1,0 L2,48 L4,41 L10,43 L17,56 L26,66 L35,72 L42,75 L49,76 L59,76 L70,73 L72,72 L73,78 L73,88 L61,85 L23,72 L7,67 L0,64 Z " fill="#6C5979" transform="translate(744,792)"/>
<path d="M0,0 L13,0 L22,6 L28,16 L27,20 L22,22 L15,23 L-7,23 L-14,20 L-15,14 L-9,5 L-3,1 Z " fill="#2E4548" transform="translate(496,821)"/>
<path d="M0,0 L31,0 L29,1 L29,7 L31,6 L34,1 L41,2 L57,9 L58,11 L49,14 L45,18 L40,21 L36,22 L22,20 L16,18 L10,9 L7,6 L0,2 Z " fill="#D96B5C" transform="translate(648,556)"/>
<path d="M0,0 L6,1 L12,10 L16,21 L17,32 L16,33 L11,33 L9,34 L4,31 L1,37 L1,42 L-6,42 L-6,47 L-7,47 L-8,42 L-11,40 L-9,39 L-8,18 L-5,7 L-2,2 Z " fill="#F2DE7C" transform="translate(303,468)"/>
<path d="M0,0 L8,2 L14,18 L18,34 L19,45 L19,77 L16,94 L11,106 L7,111 L3,113 L4,108 L9,95 L12,75 L12,48 L8,23 L2,5 Z " fill="#E4D494" transform="translate(649,430)"/>
<path d="M0,0 L9,1 L32,6 L30,12 L24,22 L10,20 L-18,13 L-25,11 L-25,9 L-9,6 Z " fill="#F1D993" transform="translate(796,679)"/>
<path d="M0,0 L5,1 L21,9 L24,14 L29,34 L35,53 L45,56 L62,60 L61,64 L55,71 L52,74 L53,67 L55,63 L39,62 L31,59 L27,53 L20,32 L16,21 L14,15 L6,10 L0,6 Z " fill="#ADD2D4" transform="translate(154,524)"/>
<path d="M0,0 L11,0 L12,18 L18,27 L27,37 L26,40 L14,42 L11,42 L5,35 L1,33 L-11,33 L-9,27 L-4,23 L-1,18 L-1,4 Z M0,5 L0,13 L1,13 L1,5 Z " fill="#E2CE7B" transform="translate(312,419)"/>
<path d="M0,0 L20,0 L19,3 L12,9 L8,17 L7,21 L3,20 L-11,20 L-16,21 L-21,11 L-29,5 L-33,2 L-28,1 Z " fill="#512B22" transform="translate(525,415)"/>
<path d="M0,0 L14,1 L11,4 L8,4 L8,23 L2,35 L0,37 L-4,36 L-8,31 L-8,29 L-10,29 L-7,41 L-3,43 L4,38 L3,43 L-2,47 L-7,46 L-12,38 L-16,25 L-17,15 L-16,10 L-8,10 L-4,15 L0,7 Z " fill="#E5CA6E" transform="translate(313,500)"/>
<path d="M0,0 L8,1 L9,2 L14,2 L13,4 L23,7 L40,11 L47,14 L59,17 L61,21 L56,20 L39,16 L34,16 L33,17 L33,34 L45,38 L41,41 L27,38 L3,31 L-6,29 L-5,22 L-5,3 Z M6,2 Z M-3,6 L-3,25 L10,29 L17,31 L24,31 L25,30 L25,13 L16,9 L3,6 Z " fill="#E1CB90" transform="translate(612,683)"/>
<path d="M0,0 L2,3 L3,8 L8,7 L10,0 L11,0 L12,9 L11,37 L10,39 L1,38 L-9,34 L-10,20 L-12,23 L-13,18 L-15,19 L-13,15 L-6,9 Z " fill="#765983" transform="translate(828,847)"/>
<path d="M0,0 L10,2 L25,6 L29,8 L34,19 L34,24 L25,31 L6,44 L2,44 L-11,17 L-13,14 L-12,9 Z M-1,5 L-5,9 L-8,10 L-8,14 L-4,22 L1,36 L6,38 L15,26 L17,22 L17,19 L29,20 L27,11 L25,9 L11,6 L7,5 Z " fill="#294546" transform="translate(549,803)"/>
<path d="M0,0 L18,4 L30,7 L35,10 L39,16 L38,25 L26,23 L14,20 L5,18 L-6,15 L-3,6 Z " fill="#D1B67C" transform="translate(660,648)"/>
<path d="M0,0 L6,0 L9,3 L9,5 L17,6 L22,9 L26,14 L26,20 L21,25 L30,29 L32,33 L31,38 L29,38 L24,33 L19,31 L11,30 L8,19 L13,20 L16,21 L20,19 L20,13 L6,10 L4,5 L0,7 L0,13 L-8,20 L-8,31 L-5,36 L-1,38 L1,40 L3,41 L3,43 L-2,46 L-5,49 L-7,56 L-8,56 L-8,49 L-4,42 L-9,40 L-13,35 L-15,24 L-13,17 L-7,12 L-6,3 Z " fill="#102222" transform="translate(211,489)"/>
<path d="M0,0 L2,2 L6,14 L11,19 L21,24 L20,27 L10,30 L7,34 L2,46 L0,50 L-3,42 L-8,32 L-16,28 L-21,26 L-21,24 L-9,19 L-7,19 L-5,14 Z " fill="#EAD380" transform="translate(272,351)"/>
<path d="M0,0 L3,3 L9,16 L14,37 L14,49 L10,55 L6,57 L-1,57 L-7,53 L-10,49 L-15,29 L-18,22 L-18,17 L-14,15 L-9,25 L-5,38 L-3,47 L-1,49 L6,49 L7,48 L7,36 L2,17 L-3,5 L-2,1 Z " fill="#241B0B" transform="translate(345,458)"/>
<path d="M0,0 L11,0 L23,2 L32,8 L38,17 L39,24 L21,24 L21,23 L29,22 L25,17 L25,15 L21,13 L11,9 L-6,9 L-14,13 L-19,17 L-23,23 L-20,24 L-26,24 L-27,21 L-24,13 L-18,6 L-13,3 L-7,1 Z " fill="#AE2F36" transform="translate(517,341)"/>
<path d="M0,0 L2,1 L-2,4 L9,3 L20,2 L22,9 L25,9 L26,2 L34,2 L44,5 L42,12 L37,14 L11,14 L5,13 L5,15 L2,14 L-25,13 L-24,11 L-19,8 L-14,3 Z " fill="#D9503F" transform="translate(680,536)"/>
<path d="M0,0 L9,1 L22,4 L29,6 L48,11 L76,18 L94,23 L115,28 L133,33 L146,37 L146,52 L145,52 L144,43 L141,40 L126,35 L103,30 L86,25 L65,20 L50,16 L31,11 L15,7 L3,3 L4,17 L10,19 L9,21 L-1,20 L-2,19 L-2,2 Z " fill="#1C160D" transform="translate(646,698)"/>
<path d="M0,0 L10,0 L17,3 L19,6 L19,49 L15,52 L12,52 L11,10 L10,53 L7,53 L6,15 L2,12 L-2,11 L-2,2 Z M13,2 Z " fill="#DAB670" transform="translate(841,672)"/>
<path d="M0,0 L13,1 L30,5 L32,8 L31,9 L20,8 L3,4 L3,9 L0,7 L-8,12 L-7,18 L5,40 L6,35 L8,36 L9,45 L13,43 L18,41 L30,31 L39,25 L43,24 L42,28 L32,36 L19,46 L9,53 L5,51 L-12,19 L-15,14 L-15,11 Z " fill="#2F4A58" transform="translate(682,315)"/>
<path d="M0,0 L6,0 L5,5 L-19,9 L-32,13 L-39,18 L-37,20 L-48,26 L-51,27 L-52,31 L-56,37 L-57,41 L-61,39 L-65,35 L-64,30 L-57,19 L-51,12 L-41,9 L-36,7 L-14,3 Z " fill="#A42D36" transform="translate(459,397)"/>
<path d="M0,0 L4,0 L4,2 L9,4 L15,8 L18,9 L18,16 L5,44 L2,51 L-3,50 L-23,37 L-35,29 L-36,24 L-29,9 L-17,5 Z M-1,4 L-9,7 L-24,11 L-28,15 L-31,23 L-31,26 L-29,26 L-27,30 L-12,40 L-7,42 L-9,36 L-2,46 L1,45 L11,20 L15,14 L14,11 L3,4 Z " fill="#1B2624" transform="translate(285,719)"/>
<path d="M0,0 L17,2 L36,7 L53,15 L63,24 L69,34 L74,51 L78,74 L78,88 L74,87 L70,65 L68,51 L64,38 L58,28 L53,22 L40,14 L28,9 L4,3 Z " fill="#B2C3C9" transform="translate(509,303)"/>
<path d="M0,0 L4,1 L4,4 L-3,11 L-8,20 L-14,29 L-20,42 L-23,45 L-18,43 L-15,36 L-13,40 L-10,44 L-7,46 L-13,53 L-16,52 L-19,48 L-24,47 L-27,56 L-33,69 L-37,82 L-40,82 L-41,81 L-41,74 L-33,55 L-27,42 L-15,19 L-8,8 L-2,1 Z " fill="#EEA384" transform="translate(273,577)"/>
<path d="M0,0 L17,0 L27,4 L32,9 L36,14 L36,15 L-17,15 L-15,11 L-10,6 L-3,1 Z " fill="#EC6049" transform="translate(511,349)"/>
<path d="M0,0 L1,0 L1,18 L-4,30 L-15,43 L-25,50 L-37,55 L-49,56 L-49,45 L-35,42 L-19,34 L-12,27 L-10,25 L-8,25 L-6,20 L-4,16 L-2,14 L-1,6 Z M-5,19 Z " fill="#B0E5F1" transform="translate(750,435)"/>
<path d="M0,0 L3,0 L4,5 L6,4 L6,2 L4,0 L12,1 L26,4 L29,8 L30,15 L18,14 L17,19 L10,29 L7,33 L2,31 L-2,21 L-2,12 L-5,12 L-7,9 L-7,5 L0,7 Z M13,4 L8,9 L13,11 L16,11 L16,6 Z " fill="#74B0BF" transform="translate(548,808)"/>
<path d="M0,0 L3,3 L7,9 L18,18 L32,25 L57,28 L57,40 L40,39 L27,34 L13,24 L7,17 L1,6 Z " fill="#A9DFED" transform="translate(231,475)"/>
<path d="M0,0 L10,1 L21,4 L28,7 L28,24 L27,25 L20,25 L2,20 L0,19 Z M6,4 Z M8,5 Z M12,6 Z " fill="#65523B" transform="translate(609,689)"/>
<path d="M0,0 L2,1 L8,16 L12,32 L12,44 L10,46 L3,46 L0,43 L-4,27 L-9,15 L-6,6 L-3,2 L0,2 Z M-7,16 Z " fill="#E5C66D" transform="translate(341,462)"/>
<path d="M0,0 L18,4 L23,6 L30,7 L32,9 L42,13 L56,14 L67,16 L73,18 L74,20 L86,23 L89,22 L94,24 L101,25 L101,27 L110,30 L110,33 L100,32 L78,27 L57,21 L32,15 L16,10 L14,8 L12,6 L-4,2 Z M25,7 Z M57,15 Z M69,18 Z " fill="#E8E0AD" transform="translate(657,694)"/>
<path d="M0,0 L0,3 L-3,10 L-3,21 L-2,30 L-4,29 L-6,25 L-7,29 L-26,29 L-28,26 L-27,18 L-26,14 L-24,3 L-19,3 L-16,8 L-10,10 L-10,4 L-12,2 L-10,1 L-1,1 Z " fill="#E5D285" transform="translate(330,383)"/>
<path d="M0,0 L13,0 L21,2 L29,9 L34,17 L28,20 L26,28 L14,29 L11,21 L11,18 L19,15 L13,15 L8,16 L2,7 L-3,3 L-3,1 Z " fill="#758D95" transform="translate(362,428)"/>
<path d="M0,0 L4,0 L8,8 L8,15 L-6,22 L-16,31 L-23,40 L-26,45 L-27,45 L-27,36 L-22,23 L-14,12 L-5,3 Z " fill="#E57766" transform="translate(574,622)"/>
<path d="M0,0 L25,0 L27,1 L36,2 L40,4 L46,6 L56,15 L60,23 L62,29 L69,31 L69,37 L67,39 L63,39 L62,56 L60,62 L57,62 L57,30 L54,21 L50,15 L40,9 L27,6 L-7,5 L-6,1 Z M42,6 Z M40,7 Z " fill="#DFD39B" transform="translate(570,410)"/>
<path d="M0,0 L7,0 L4,2 L13,8 L17,13 L19,19 L18,39 L11,55 L5,64 L-4,74 L-12,82 L-28,90 L-36,93 L-50,93 L-50,91 L-34,87 L-23,83 L-11,75 L-1,65 L7,52 L12,40 L14,33 L14,19 L10,12 L4,7 L-6,4 L-2,2 Z " fill="#D6C58B" transform="translate(490,416)"/>
<path d="M0,0 L3,0 L7,9 L12,14 L16,13 L17,17 L25,16 L24,18 L23,37 L21,37 L21,22 L18,22 L17,44 L15,42 L14,36 L7,36 L8,32 L12,31 L14,27 L14,20 L5,13 L1,7 L-1,7 L0,17 L2,28 L2,39 L1,41 L3,40 L11,40 L13,42 L11,44 L5,43 L0,43 L-1,41 L-6,42 L-6,5 Z " fill="#1E3F4F" transform="translate(849,785)"/>
<path d="M0,0 L13,0 L15,34 L-2,32 L-6,31 L-6,25 L-2,15 Z " fill="#3498C1" transform="translate(670,596)"/>
<path d="M0,0 L1,0 L1,39 L-8,37 L-29,30 L-54,23 L-56,21 L-56,8 L-54,5 L-53,19 L-39,24 L-33,22 L-7,30 L-5,31 L-5,4 L-12,3 L-8,1 L0,2 Z " fill="#BE9C66" transform="translate(740,778)"/>
<path d="M0,0 L9,1 L26,5 L46,11 L66,16 L84,21 L106,27 L131,34 L135,35 L135,23 L136,23 L137,18 L138,18 L138,36 L136,38 L127,37 L113,33 L82,25 L46,15 L15,7 L-3,2 Z " fill="#211D12" transform="translate(655,718)"/>
<path d="M0,0 L15,0 L15,4 L13,5 L13,12 L10,24 L8,29 L6,36 L5,37 L-8,37 L-5,25 L-3,20 L-1,1 Z " fill="#1B8CB9" transform="translate(299,603)"/>
<path d="M0,0 L2,0 L3,3 L3,16 L1,21 L-8,30 L-14,40 L-19,51 L-24,60 L-25,60 L-25,53 L-19,32 L-12,16 L-6,6 L-1,1 Z " fill="#D7796D" transform="translate(266,553)"/>
<path d="M0,0 L3,0 L4,8 L12,12 L19,14 L33,14 L45,9 L54,2 L57,2 L56,8 L51,14 L39,20 L36,21 L16,21 L3,16 L-1,13 L-5,14 L-9,15 L-9,9 L-3,2 Z " fill="#2C090C" transform="translate(495,497)"/>
<path d="M0,0 L2,2 L5,14 L5,29 L0,44 L-8,56 L-16,64 L-28,71 L-37,73 L-37,70 L-28,64 L-25,59 L-13,54 L-10,51 L-7,45 L-6,34 L-3,27 L-2,22 L-1,5 Z " fill="#92DDED" transform="translate(800,452)"/>
<path d="M0,0 L10,1 L22,4 L22,0 L25,0 L25,6 L34,7 L67,16 L83,20 L104,25 L104,22 L108,23 L110,27 L126,32 L133,33 L133,37 L128,36 L107,31 L107,35 L104,35 L104,29 L96,28 L75,22 L40,13 L24,9 L24,12 L22,12 L22,7 L14,6 L2,3 L0,2 Z " fill="#C5CEA3" transform="translate(654,709)"/>
<path d="M0,0 L2,1 L-2,15 L-2,34 L0,44 L4,54 L11,63 L20,69 L35,72 L32,74 L29,74 L29,76 L21,75 L12,70 L3,62 L-5,46 L-7,32 L-7,25 L-17,25 L-17,18 L-15,16 L-7,16 L-6,7 L-3,1 Z " fill="#D2BB7E" transform="translate(411,433)"/>
<path d="M0,0 L2,2 L6,12 L7,15 L11,17 L19,21 L16,23 L9,27 L5,34 L1,43 L-1,40 L-4,32 L-7,27 L-12,24 L-17,22 L-13,19 L-7,17 L-5,13 Z " fill="#EAD689" transform="translate(653,275)"/>
<path d="M0,0 L5,0 L7,2 L13,2 L13,17 L12,22 L11,39 L8,48 L6,45 L4,42 L0,26 L-1,20 L-1,2 Z " fill="#B54850" transform="translate(231,670)"/>
<path d="M0,0 L7,1 L36,8 L51,12 L76,19 L80,20 L80,26 L72,25 L51,19 L38,16 L17,10 L3,6 L-1,4 Z " fill="#60745C" transform="translate(678,718)"/>
<path d="M0,0 L8,0 L11,1 L14,10 L12,17 L4,23 L-2,24 L-9,17 L-15,7 L-15,4 L-2,1 Z " fill="#E2604A" transform="translate(367,585)"/>
<path d="M0,0 L2,1 L3,5 L3,20 L1,20 L0,24 L-4,27 L-5,35 L-7,37 L-17,39 L-20,35 L-20,32 L-29,32 L-37,26 L-38,25 L-37,16 L-31,10 L-28,10 L-28,8 L-32,8 L-31,5 L-23,6 L-20,11 L-20,18 L-25,17 L-28,15 L-32,16 L-34,20 L-31,24 L-26,26 L-17,27 L-16,34 L-10,33 L-11,25 L-3,18 L-1,14 L-1,5 Z " fill="#161E1A" transform="translate(242,522)"/>
<path d="M0,0 L10,2 L28,7 L28,24 L22,23 L6,18 L0,16 Z " fill="#927B60" transform="translate(803,741)"/>
<path d="M0,0 L4,0 L9,11 L13,24 L13,27 L-2,27 L-6,22 L-12,5 L-12,1 Z " fill="#B28D49" transform="translate(636,368)"/>
<path d="M0,0 L9,0 L9,9 L6,10 L5,7 L3,6 L3,16 L5,16 L7,12 L9,12 L9,19 L5,20 L5,25 L7,25 L7,22 L9,22 L9,39 L2,38 L0,34 L0,28 L-8,29 L-8,8 L-7,6 L-4,6 L-4,21 L-2,21 L-2,2 Z " fill="#4193A4" transform="translate(874,801)"/>
<path d="M0,0 L2,0 L2,8 L-3,21 L-10,42 L-8,43 L-12,44 L-18,37 L-19,34 L-22,41 L-27,42 L-26,39 L-24,39 L-21,30 L-14,18 L-11,13 L-5,5 Z " fill="#EA593A" transform="translate(277,580)"/>
<path d="M0,0 L10,1 L26,6 L47,12 L47,39 L35,36 L17,30 L2,26 L0,25 Z M4,4 L3,7 L4,23 L18,27 L37,33 L42,35 L45,35 L45,15 L28,9 L13,6 Z " fill="#1B1610" transform="translate(688,770)"/>
<path d="M0,0 L3,1 L-4,6 L-13,10 L-25,17 L-33,23 L-42,36 L-46,52 L-47,60 L-48,94 L-51,95 L-52,93 L-52,62 L-50,44 L-46,33 L-42,27 L-37,21 L-25,12 L-4,2 Z " fill="#95A7B1" transform="translate(449,309)"/>
<path d="M0,0 L14,0 L20,10 L26,15 L26,16 L0,19 L-5,20 L-7,14 L-7,7 L-6,2 Z M2,1 Z M-4,2 L-4,5 L0,2 Z " fill="#CD6F63" transform="translate(281,541)"/>
<path d="M0,0 L17,4 L36,9 L57,14 L78,20 L82,22 L79,22 L79,25 L69,24 L48,18 L27,13 L5,7 L0,6 Z " fill="#565F52" transform="translate(679,709)"/>
<path d="M0,0 L7,1 L10,8 L10,19 L6,27 L2,30 L-4,30 L-7,24 L-7,9 L-3,2 Z " fill="#DEAB55" transform="translate(876,757)"/>
<path d="M0,0 L2,2 L4,12 L9,16 L15,16 L20,14 L20,30 L16,45 L11,52 L9,52 L11,45 L14,37 L14,31 L3,39 L2,39 L1,13 Z " fill="#EBD06F" transform="translate(673,467)"/>
<path d="M0,0 L6,1 L16,8 L14,14 L11,19 L5,33 L2,41 L-2,41 L0,40 L0,14 L-1,11 L-6,9 L-9,7 L-16,6 L-12,4 L-2,1 Z " fill="#5B9BB2" transform="translate(284,723)"/>
<path d="M0,0 L8,2 L11,4 L17,6 L21,5 L25,9 L31,8 L32,10 L41,11 L56,16 L56,18 L42,18 L16,11 L4,8 L4,33 L21,37 L20,41 L11,39 L2,35 L1,24 L0,24 Z M1,1 Z " fill="#E1D1A1" transform="translate(684,762)"/>
<path d="M0,0 L2,1 L-1,6 L-2,16 L-10,19 L-28,19 L-46,15 L-46,12 L-29,10 L-12,6 Z " fill="#A52D36" transform="translate(601,677)"/>
<path d="M0,0 L4,0 L9,13 L17,23 L26,34 L31,43 L31,56 L24,71 L21,79 L18,80 L18,71 L23,63 L25,58 L25,42 L19,32 L8,20 L0,4 Z " fill="#D2C091" transform="translate(342,585)"/>
<path d="M0,0 L13,3 L26,7 L29,9 L29,23 L22,22 L0,16 L-5,15 L-5,14 L0,14 L0,10 L8,11 L21,14 L26,16 L26,12 L19,12 L3,7 L0,2 Z " fill="#565F52" transform="translate(761,730)"/>
<path d="M0,0 L5,0 L9,5 L11,6 L8,15 L-2,27 L-7,32 L-13,38 L-16,37 L-15,35 L-13,33 L-9,20 Z " fill="#E85A3B" transform="translate(249,624)"/>
<path d="M0,0 L2,1 L7,13 L12,18 L23,25 L25,30 L28,36 L27,41 L24,42 L23,45 L20,44 L21,43 L20,36 L14,26 L8,21 L-1,18 L-5,15 L-7,2 Z " fill="#DACE93" transform="translate(656,399)"/>
<path d="M0,0 L1,0 L2,9 L2,19 L-4,31 L-8,36 L-17,42 L-24,45 L-37,45 L-46,43 L-59,36 L-66,30 L-66,25 L-63,26 L-63,28 L-59,30 L-48,37 L-37,40 L-25,40 L-17,37 L-10,31 L-5,23 L-2,13 Z " fill="#2A1C0A" transform="translate(625,453)"/>
<path d="M0,0 L4,5 L12,16 L21,22 L28,23 L28,26 L23,27 L10,27 L0,24 L-5,20 L-6,13 L0,5 Z " fill="#C99D61" transform="translate(314,745)"/>
<path d="M0,0 L8,1 L11,4 L10,10 L4,13 L-3,13 L-3,11 L6,7 L6,5 L0,5 L-6,10 L-7,12 L-7,21 L-6,24 L0,26 L10,26 L10,23 L-1,23 L0,21 L3,20 L12,20 L14,22 L14,27 L10,31 L-3,31 L-9,27 L-13,21 L-13,12 L-9,6 L-3,1 Z " fill="#C8B68D" transform="translate(374,661)"/>
<path d="M0,0 L4,1 L10,4 L9,13 L3,33 L0,34 L-7,32 L-8,27 L-6,20 L-3,13 L-3,6 Z " fill="#C29A49" transform="translate(335,381)"/>
<path d="M0,0 L11,0 L10,12 L8,9 L-36,6 L-45,5 L-46,7 L-50,5 L-50,2 L-43,1 Z " fill="#AACED5" transform="translate(361,787)"/>
<path d="M0,0 L3,1 L9,9 L16,14 L16,21 L11,26 L9,27 L8,30 L15,29 L16,30 L16,36 L12,35 L2,35 L2,22 L-1,7 L-1,1 Z " fill="#43A6B5" transform="translate(848,791)"/>
<path d="M0,0 L4,0 L6,14 L7,22 L-4,24 L-12,24 L-13,8 L-4,5 L-3,1 Z " fill="#2199C9" transform="translate(389,619)"/>
<path d="M0,0 L28,0 L33,3 L33,5 L18,6 L20,7 L20,10 L16,13 L14,13 L14,17 L11,16 L8,11 L8,7 L9,5 L0,7 L-3,10 L-5,13 L-13,7 L-13,4 Z " fill="#E09C8B" transform="translate(291,564)"/>
<path d="M0,0 L1,2 L1,10 L4,10 L4,3 L6,0 L12,1 L15,4 L16,15 L-10,17 L-16,17 L-9,6 L-5,1 Z " fill="#B26460" transform="translate(703,510)"/>
<path d="M0,0 L3,0 L6,17 L6,29 L-5,27 L-6,18 L-8,18 L-10,12 L-10,5 Z " fill="#B24645" transform="translate(781,623)"/>
<path d="M0,0 L9,0 L30,6 L40,12 L47,18 L45,23 L42,26 L42,22 L34,17 L33,15 L30,14 L30,12 L25,11 L11,7 L-9,5 L-9,2 Z " fill="#E39589" transform="translate(445,622)"/>
<path d="M0,0 L10,2 L22,6 L28,7 L27,12 L18,11 L5,8 L5,10 L22,14 L27,15 L28,21 L19,20 L1,15 L0,14 Z " fill="#5C574E" transform="translate(649,701)"/>
<path d="M0,0 L5,0 L6,1 L6,14 L4,21 L-2,25 L-10,29 L-12,29 L-12,16 L-4,11 L-4,4 Z " fill="#7A4E67" transform="translate(877,842)"/>
<path d="M0,0 L16,0 L19,3 L15,6 L-17,6 L-33,8 L-48,13 L-52,14 L-52,19 L-58,18 L-58,13 L-54,11 L-53,9 L-46,8 L-35,5 L-36,3 L-29,3 L-29,2 Z M-12,2 Z M-51,12 Z " fill="#EFEBBF" transform="translate(473,413)"/>
<path d="M0,0 L1,0 L3,10 L6,17 L11,20 L16,21 L16,23 L6,26 L4,28 L1,41 L-1,39 L-3,29 L-8,25 L-19,22 L-15,20 L-6,18 L-2,9 Z M0,8 L1,10 Z M1,10 Z " fill="#DAE094" transform="translate(825,442)"/>
<path d="M0,0 L4,1 L1,1 L4,8 L8,3 L5,1 L12,2 L26,5 L30,7 L35,16 L35,18 L28,18 L3,13 L2,7 L0,7 L0,11 L-8,10 L-11,9 L-10,7 L-1,10 L-2,3 Z M13,5 L6,11 L9,13 L18,13 L16,7 L15,5 Z " fill="#97C8D5" transform="translate(685,319)"/>
<path d="M0,0 L17,4 L44,11 L66,17 L69,20 L55,20 L26,12 L5,6 L-4,4 L-4,2 Z " fill="#D8C792" transform="translate(657,721)"/>
<path d="M0,0 L2,4 L6,13 L8,16 L8,20 L4,24 L-5,45 L-7,48 L-9,48 L-7,27 L-4,19 L-1,2 Z " fill="#6E99A0" transform="translate(845,553)"/>
<path d="M0,0 L7,0 L3,4 L20,4 L21,2 L24,3 L24,13 L19,16 L8,16 L1,15 L-2,12 L-2,2 Z " fill="#50412C" transform="translate(805,709)"/>
<path d="M0,0 L5,5 L8,9 L10,12 L12,21 L12,26 L5,30 L3,30 L-4,11 L-6,7 L-5,3 Z " fill="#E6CE79" transform="translate(651,362)"/>
<path d="M0,0 L7,1 L8,3 L10,31 L16,32 L17,30 L16,38 L15,39 L9,39 L3,34 L2,32 L1,5 Z " fill="#322C1A" transform="translate(673,445)"/>
<path d="M0,0 L9,5 L11,8 L11,27 L10,34 L7,33 L-3,18 L-4,13 L-2,11 L3,6 L3,4 L1,4 Z " fill="#92CDDF" transform="translate(274,729)"/>
<path d="M0,0 L13,0 L25,4 L25,5 L0,6 L-16,11 L-26,17 L-29,23 L-33,20 L-32,15 L-25,9 L-9,2 Z " fill="#E49687" transform="translate(614,598)"/>
<path d="M0,0 L14,0 L25,3 L26,7 L25,9 L18,8 L6,6 L5,13 L2,13 L0,9 L0,6 L-19,9 L-23,8 L-16,3 Z " fill="#E19A88" transform="translate(700,532)"/>
<path d="M0,0 L4,5 L7,8 L8,6 L8,9 L13,9 L12,11 L10,11 L15,21 L18,30 L13,28 L1,20 L-4,16 L-4,14 L-6,14 L-5,9 L-2,1 Z M-2,4 L-3,9 L-1,8 Z " fill="#78ACBD" transform="translate(260,731)"/>
<path d="M0,0 L6,0 L30,7 L32,9 L32,27 L30,29 L21,28 L6,24 L-1,22 L-1,1 Z M1,3 L1,19 L7,21 L23,26 L29,27 L29,10 L11,5 Z " fill="#2A1A0E" transform="translate(802,738)"/>
<path d="M0,0 L9,0 L12,2 L12,0 L48,0 L46,13 L39,15 L36,13 L36,11 L31,9 L22,4 L8,4 L8,1 L0,1 Z " fill="#942A33" transform="translate(673,549)"/>
<path d="M0,0 L12,0 L12,1 L-3,5 L-10,7 L-15,8 L-28,13 L-40,18 L-47,22 L-50,21 L-48,17 L-42,14 L-42,12 L-33,8 L-30,7 L-13,1 L-4,1 Z M-40,12 Z " fill="#EFEBB3" transform="translate(447,260)"/>
<path d="M0,0 L12,3 L43,11 L57,15 L57,20 L39,16 L38,15 L28,13 L0,5 L-9,3 L-6,1 L0,1 Z " fill="#D1C08A" transform="translate(725,739)"/>
<path d="M0,0 L1,0 L1,7 L-3,18 L-5,24 L-13,30 L-17,31 L-15,22 L-13,6 L-11,8 Z " fill="#A87833" transform="translate(687,497)"/>
<path d="M0,0 L1,0 L1,13 L-2,16 L-17,20 L-30,30 L-32,31 L-31,27 L-22,16 L-14,9 L-4,4 L-1,3 Z " fill="#9E2C37" transform="translate(582,634)"/>
<path d="M0,0 L5,2 L5,24 L6,34 L2,34 L-6,18 L-7,11 L-3,3 Z " fill="#943543" transform="translate(273,648)"/>
<path d="M0,0 L10,1 L28,4 L43,8 L80,16 L85,18 L85,19 L77,19 L55,14 L30,9 L9,4 L0,2 Z " fill="#1A242A" transform="translate(732,652)"/>
<path d="M0,0 L3,4 L8,11 L11,12 L11,14 L6,17 L4,20 L2,20 L1,26 L-1,23 L-6,17 L-10,14 L-9,11 L-7,11 L-5,7 L-3,4 L-1,4 Z " fill="#E9D792" transform="translate(716,426)"/>
<path d="M0,0 L7,0 L43,7 L55,10 L76,15 L77,17 L67,16 L57,14 L50,12 L38,10 L24,7 L2,2 Z " fill="#1A242A" transform="translate(655,636)"/>
<path d="M0,0 L6,5 L9,11 L9,15 L13,16 L10,17 L12,22 L12,32 L10,32 L10,37 L9,37 L6,20 L2,9 L-1,1 Z M5,15 Z M9,29 L10,31 Z " fill="#DACE93" transform="translate(663,428)"/>
<path d="M0,0 L3,0 L4,2 L8,3 L11,11 L12,25 L7,25 L4,9 Z " fill="#393134" transform="translate(313,476)"/>
<path d="M0,0 L3,1 L1,1 L2,41 L3,41 L3,62 L2,62 L1,72 L0,72 Z " fill="#6F95A2" transform="translate(605,715)"/>
<path d="M0,0 L10,0 L8,1 L7,8 L8,11 L1,10 L-3,5 L-3,1 Z M1,1 L0,3 L1,5 L3,5 L4,1 Z M-2,2 L-1,5 L-1,2 Z M8,9 Z " fill="#92CDDF" transform="translate(264,729)"/>
</svg>
