<svg width="1280" height="800" viewBox="0 0 1280 800" fill="none" xmlns="http://www.w3.org/2000/svg">
  <rect width="1280" height="800" fill="currentColor" opacity="0.08"/>
  <rect x="28" y="22" width="1224" height="756" rx="14" fill="currentColor" fill-opacity="0.12" stroke="currentColor" stroke-opacity="0.35"/>

  <rect x="40" y="34" width="76" height="732" rx="10" fill="currentColor" opacity="0.22"/>
  <rect x="53" y="47" width="50" height="50" rx="10" fill="currentColor" opacity="0.85"/>
  <rect x="53" y="106" width="50" height="50" rx="10" fill="currentColor" opacity="0.42"/>
  <rect x="53" y="165" width="50" height="50" rx="10" fill="currentColor" opacity="0.42"/>
  <rect x="53" y="224" width="50" height="50" rx="10" fill="currentColor" opacity="0.42"/>

  <rect x="124" y="34" width="260" height="732" rx="10" fill="currentColor" opacity="0.2"/>
  <rect x="136" y="46" width="236" height="44" rx="8" fill="currentColor" opacity="0.34"/>
  <rect x="136" y="98" width="236" height="68" rx="8" fill="currentColor" opacity="0.78"/>
  <rect x="136" y="188" width="236" height="34" rx="8" fill="currentColor" opacity="0.32"/>
  <rect x="136" y="228" width="236" height="34" rx="8" fill="currentColor" opacity="0.22"/>
  <rect x="136" y="268" width="236" height="34" rx="8" fill="currentColor" opacity="0.22"/>
  <rect x="136" y="324" width="236" height="34" rx="8" fill="currentColor" opacity="0.22"/>
  <rect x="136" y="702" width="236" height="56" rx="8" fill="currentColor" opacity="0.34"/>

  <rect x="384" y="34" width="638" height="732" rx="10" fill="currentColor" opacity="0.16"/>
  <rect x="384" y="34" width="638" height="52" rx="10" fill="currentColor" opacity="0.28"/>
  <rect x="400" y="104" width="600" height="74" rx="10" fill="currentColor" opacity="0.14"/>
  <rect x="400" y="196" width="600" height="74" rx="10" fill="currentColor" opacity="0.14"/>
  <rect x="400" y="296" width="600" height="362" rx="10" fill="currentColor" opacity="0.12"/>
  <rect x="400" y="676" width="600" height="70" rx="10" fill="currentColor" opacity="0.28"/>

  <rect x="1022" y="34" width="230" height="732" rx="10" fill="currentColor" opacity="0.2"/>
  <rect x="1034" y="88" width="206" height="38" rx="8" fill="currentColor" opacity="0.3"/>
  <rect x="1034" y="132" width="206" height="38" rx="8" fill="currentColor" opacity="0.3"/>
  <rect x="1034" y="176" width="206" height="38" rx="8" fill="currentColor" opacity="0.3"/>
  <rect x="1034" y="724" width="206" height="34" rx="8" fill="currentColor" opacity="0.8"/>

  <circle cx="64" cy="57" r="7" fill="currentColor" opacity="0.7"/>
  <circle cx="84" cy="57" r="7" fill="currentColor" opacity="0.55"/>
  <circle cx="104" cy="57" r="7" fill="currentColor" opacity="0.7"/>
</svg>
