<svg width="1280" height="800" viewBox="0 0 1280 800" fill="none" xmlns="http://www.w3.org/2000/svg">
  <rect width="1280" height="800" fill="#232428"/>
  <rect x="28" y="22" width="1224" height="756" rx="14" fill="#313338" stroke="#1A1B1E"/>

  <rect x="40" y="34" width="76" height="732" rx="10" fill="#1E1F22"/>
  <rect x="53" y="47" width="50" height="50" rx="10" fill="#5865F2"/>
  <rect x="53" y="106" width="50" height="50" rx="10" fill="#383A40"/>
  <rect x="53" y="165" width="50" height="50" rx="10" fill="#383A40"/>
  <rect x="53" y="224" width="50" height="50" rx="10" fill="#383A40"/>

  <rect x="124" y="34" width="260" height="732" rx="10" fill="#2B2D31"/>
  <rect x="136" y="46" width="236" height="44" rx="8" fill="#313338"/>
  <rect x="136" y="98" width="236" height="68" rx="8" fill="#5865F2"/>
  <rect x="136" y="188" width="236" height="34" rx="8" fill="#383A40"/>
  <rect x="136" y="228" width="236" height="34" rx="8" fill="#2B2D31"/>
  <rect x="136" y="268" width="236" height="34" rx="8" fill="#2B2D31"/>
  <rect x="136" y="324" width="236" height="34" rx="8" fill="#2B2D31"/>
  <rect x="136" y="702" width="236" height="56" rx="8" fill="#313338"/>

  <rect x="384" y="34" width="638" height="732" rx="10" fill="#313338"/>
  <rect x="384" y="34" width="638" height="52" rx="10" fill="#383A40"/>
  <rect x="400" y="104" width="600" height="74" rx="10" fill="#313338"/>
  <rect x="400" y="196" width="600" height="74" rx="10" fill="#313338"/>
  <rect x="400" y="296" width="600" height="362" rx="10" fill="#313338"/>
  <rect x="400" y="676" width="600" height="70" rx="10" fill="#383A40"/>

  <rect x="1022" y="34" width="230" height="732" rx="10" fill="#2B2D31"/>
  <rect x="1034" y="88" width="206" height="38" rx="8" fill="#383A40"/>
  <rect x="1034" y="132" width="206" height="38" rx="8" fill="#383A40"/>
  <rect x="1034" y="176" width="206" height="38" rx="8" fill="#383A40"/>
  <rect x="1034" y="724" width="206" height="34" rx="8" fill="#5865F2"/>

  <circle cx="64" cy="57" r="7" fill="#ED6A5E"/>
  <circle cx="84" cy="57" r="7" fill="#F4BF4F"/>
  <circle cx="104" cy="57" r="7" fill="#61C554"/>
</svg>
